<?xml version="1.0" encoding="UTF-8" standalone="no"?>
<svg
   width="32"
   height="32"
   version="1.1"
   id="svg33"
   sodipodi:docname="ecos.svg"
   inkscape:version="1.1.1 (3bf5ae0d25, 2021-09-20, custom)"
   xmlns:inkscape="http://www.inkscape.org/namespaces/inkscape"
   xmlns:sodipodi="http://sodipodi.sourceforge.net/DTD/sodipodi-0.dtd"
   xmlns:xlink="http://www.w3.org/1999/xlink"
   xmlns="http://www.w3.org/2000/svg"
   xmlns:svg="http://www.w3.org/2000/svg">
  <sodipodi:namedview
     id="namedview35"
     pagecolor="#ffffff"
     bordercolor="#666666"
     borderopacity="1.0"
     inkscape:pageshadow="2"
     inkscape:pageopacity="0.0"
     inkscape:pagecheckerboard="0"
     showgrid="false"
     inkscape:zoom="11.046875"
     inkscape:cx="2.5799151"
     inkscape:cy="4.6619519"
     inkscape:window-width="1920"
     inkscape:window-height="1024"
     inkscape:window-x="0"
     inkscape:window-y="28"
     inkscape:window-maximized="1"
     inkscape:current-layer="svg33" />
  <defs
     id="defs11">
    <linearGradient
       id="m"
       x1="4.49"
       x2="47.5"
       y1="23"
       y2="23"
       gradientTransform="matrix(.64663 0 0 -.64663 -.478 30.873)"
       gradientUnits="userSpaceOnUse"
       xlink:href="#h" />
    <linearGradient
       id="h">
      <stop
         stop-color="#fff"
         offset="0"
         id="stop3" />
      <stop
         stop-color="#fff"
         stop-opacity="0"
         offset="1"
         id="stop5" />
    </linearGradient>
    <linearGradient
       id="l"
       x1="48.127"
       x2="2.873"
       y1="25.828"
       y2="24.414"
       gradientTransform="matrix(.45724 -.45724 -.45724 -.45724 14.748 38.235)"
       gradientUnits="userSpaceOnUse"
       xlink:href="#h" />
    <linearGradient
       id="k"
       x1="46.006"
       x2="4.287"
       y1="23.707"
       y2="27.243"
       gradientTransform="matrix(.45724 .45724 -.45724 .45724 14.869 -6.1764)"
       gradientUnits="userSpaceOnUse"
       xlink:href="#h" />
    <linearGradient
       id="j"
       x1="3.5"
       x2="47.5"
       y1="23"
       y2="23"
       gradientTransform="matrix(0 .64663 .64663 0 1.14 -.489)"
       gradientUnits="userSpaceOnUse"
       xlink:href="#h" />
  </defs>
  <path
     d="m16 1.5c-8 0-14.5 6.5-14.5 14.5s6.5 14.5 14.5 14.5 14.5-6.5 14.5-14.5-6.5-14.5-14.5-14.5z"
     color="#000000"
     fill="#808080"
     overflow="visible"
     stroke="#05111e"
     stroke-opacity=".518"
     id="path13"
     style="fill:#a0d131;fill-opacity:0.84705883;stroke:#a0d131;stroke-opacity:0.84705883" />
  <path
     d="m18.614 28.594a6.143 13.903 0 0 0-2.617-26.496"
     fill="none"
     opacity=".8"
     stroke="url(#j)"
     stroke-linecap="round"
     stroke-linejoin="round"
     id="path15" />
  <path
     d="m17.467 28.185a1.293 1.293 0 0 0 2.586 0 1.293 1.293 0 1 0-2.586 0z"
     color="#000000"
     fill="#fff"
     overflow="visible"
     id="path17" />
  <path
     d="m25.842 25.83a13.903 6.143 45 0 1-20.564-17.46"
     fill="none"
     opacity=".8"
     stroke="url(#k)"
     stroke-linecap="round"
     stroke-linejoin="round"
     id="path19" />
  <path
     d="m6.635 8.827a1.293 1.293 0 0 1-2.586 0 1.293 1.293 0 1 1 2.586 0z"
     color="#000000"
     fill="#fff"
     overflow="visible"
     id="path21" />
  <path
     d="m25.967 6.509a6.143 13.903 45 0 0-20.554 14.841"
     fill="none"
     opacity=".8"
     stroke="url(#l)"
     stroke-linecap="round"
     stroke-linejoin="round"
     id="path23" />
  <path
     d="m5.222 23.516a1.2935 1.2935 0 0 0 0-2.587 1.2935 1.2935 0 1 0 0 2.587z"
     fill="#fff"
     id="path25" />
  <path
     d="m27.853 12.781a13.903 6.143 0 0 0-25.729 3.506"
     fill="none"
     stroke="url(#m)"
     stroke-linecap="round"
     stroke-linejoin="round"
     id="path27" />
  <path
     d="m29.389 13.03a1.2935 1.2935 0 0 0-2.587 0 1.2935 1.2935 0 1 0 2.587 0z"
     color="#000000"
     fill="#fff"
     overflow="visible"
     id="path29" />
  <path
     d="M16 11.254c-1.526 1.06-3.24 1.596-4.96 1.96.815 4.622 2.57 6.599 4.96 7.837 2.39-1.238 4.145-3.215 4.96-7.837-1.72-.364-3.434-.9-4.96-1.96zM16 9s-1.75 2.324-7 2.907c0 0 0 8.17 7 11.093 7-2.924 7-11.093 7-11.093C17.75 11.324 16 9 16 9zm0 1.205c1.388 1.177 3.393 1.961 5.99 2.357-.14 1.264-.277 2.215-.603 3.135-.688 1.933-1.488 3.11-2.205 3.955-1.115 1.311-2.126 1.84-3.182 2.368-1.056-.527-2.067-1.057-3.182-2.368-.717-.845-1.517-2.022-2.205-3.955-.326-.92-.463-1.87-.604-3.135 2.598-.396 4.603-1.18 5.991-2.357z"
     fill="#ffdf60"
     id="path31"
     style="fill:#ffffff;fill-opacity:1" />
</svg>
